<svg width="1299" height="1299" xmlns="http://www.w3.org/2000/svg" xmlns:xlink="http://www.w3.org/1999/xlink" overflow="hidden"><defs><clipPath id="clip0"><rect x="485" y="457" width="1299" height="1299"/></clipPath><clipPath id="clip1"><rect x="750" y="721" width="768" height="770"/></clipPath><clipPath id="clip2"><rect x="750" y="721" width="768" height="770"/></clipPath><clipPath id="clip3"><rect x="750" y="721" width="768" height="770"/></clipPath></defs><g clip-path="url(#clip0)" transform="translate(-485 -457)"><path d="M485 1106.5C485 747.791 775.791 457 1134.5 457 1493.21 457 1784 747.791 1784 1106.5 1784 1465.21 1493.21 1756 1134.5 1756 775.791 1756 485 1465.21 485 1106.5Z" fill="#F29D12" fill-rule="evenodd"/><path d="M880.654 817.332 1357.82 1423.94 971.931 1728.51 955.583 1725.72C686.33 1665.62 487.24 1422.58 492.25 1135.53L493.086 1123.23Z" fill="#7B4F07" fill-rule="evenodd" fill-opacity="0.490196"/><path d="M762 1106.5C762 900.774 928.774 734 1134.5 734 1340.23 734 1507 900.774 1507 1106.5 1507 1312.23 1340.23 1479 1134.5 1479 928.774 1479 762 1312.23 762 1106.5Z" fill="#FFFFFF" fill-rule="evenodd"/><g clip-path="url(#clip1)"><g clip-path="url(#clip2)"><g clip-path="url(#clip3)"><path d="M0 384C-8.52653e-14 171.923 171.923-4.26325e-14 384-4.26325e-14 596.078-1.27898e-13 768 171.923 768 384 768 596.078 596.078 768 384 768 171.923 768-4.26325e-14 596.078-4.26325e-14 384ZM360 51.696C327.84 61.488 295.92 91.056 269.424 140.736 262.56 153.6 256.176 167.616 250.464 182.592 284.304 190.128 321.12 194.928 360 196.368L360 51.696ZM203.952 169.872C210.768 151.44 218.544 134.16 227.04 118.128 235.34 102.435 244.924 87.4555 255.696 73.344 214.832 90.2784 177.708 115.104 146.448 146.4 163.824 155.232 183.072 163.152 203.952 169.92ZM168.432 360C170.16 308.64 177.456 259.824 189.36 215.616 163.378 207.307 138.228 196.588 114.24 183.6 76.0099 234.929 53.3194 296.154 48.864 360L168.384 360ZM235.632 228.432C224.316 271.429 217.875 315.563 216.432 360L360 360 360 244.368C316.32 242.928 274.416 237.408 235.632 228.432ZM408 244.32 408 360 551.52 360C550.094 315.564 543.667 271.43 532.368 228.432 493.584 237.408 451.68 242.88 408 244.368ZM216.48 408C218.16 455.376 224.928 499.872 235.632 539.568 276.483 530.299 318.131 524.976 360 523.68L360 408 216.48 408ZM408 408 408 523.632C451.68 525.072 493.584 530.592 532.368 539.568 543.072 499.872 549.84 455.376 551.568 408L408 408ZM250.464 585.408C256.224 600.384 262.56 614.4 269.424 627.264 295.92 676.944 327.888 706.464 360 716.304L360 571.68C321.12 573.12 284.304 577.92 250.464 585.456ZM255.744 694.656C244.955 680.549 235.354 665.568 227.04 649.872 218.199 633.139 210.486 615.84 203.952 598.08 184.206 604.426 164.981 612.288 146.448 621.6 177.708 652.896 214.832 677.722 255.696 694.656ZM189.36 552.384C176.898 505.21 169.86 456.769 168.384 408L48.864 408C53.317 471.847 76.008 533.074 114.24 584.4 136.8 572.016 162 561.264 189.36 552.384ZM512.304 694.656C553.147 677.731 590.256 652.925 621.504 621.648 602.986 612.341 583.776 604.474 564.048 598.128 557.51 615.869 549.797 633.158 540.96 649.872 532.661 665.568 523.08 680.544 512.304 694.656ZM408 571.632 408 716.304C440.16 706.512 472.08 676.944 498.576 627.264 505.44 614.4 511.824 600.384 517.536 585.408 481.517 577.512 444.853 572.914 408 571.68ZM578.64 552.384C606 561.264 631.2 572.016 653.76 584.4 691.992 533.074 714.682 471.847 719.136 408L599.616 408C598.138 456.769 591.101 505.21 578.64 552.384ZM719.136 360C714.682 296.153 691.992 234.928 653.76 183.6 631.2 195.984 606 206.736 578.64 215.616 590.544 259.776 597.84 308.64 599.616 360L719.136 360ZM540.96 118.128C549.456 134.16 557.232 151.44 564.096 169.872 583.81 163.524 603.005 155.66 621.504 146.352 590.251 115.095 553.142 90.3034 512.304 73.392 522.768 86.976 532.368 102.048 540.96 118.128ZM517.536 182.592C512.083 168.264 505.752 154.285 498.576 140.736 472.08 91.056 440.16 61.536 408 51.696L408 196.32C446.88 194.88 483.696 190.08 517.536 182.544Z" fill="#595959" transform="matrix(1 0 0 1 750 722)"/></g></g></g><path d="M858.75 1596.12C856.344 1600.29 851.016 1601.71 846.849 1599.31L839.493 1595.06C835.326 1592.66 833.898 1587.33 836.304 1583.16L871.981 1521.37C874.387 1517.2 879.716 1515.77 883.883 1518.18L891.238 1522.42C895.405 1524.83 896.833 1530.16 894.427 1534.33Z" fill="#595959" fill-rule="evenodd"/><path d="M651.238 1391.4C647.071 1393.81 641.742 1392.38 639.336 1388.21L635.089 1380.85C632.683 1376.69 634.111 1371.36 638.278 1368.95L700.076 1333.27C704.244 1330.87 709.572 1332.3 711.978 1336.46L716.225 1343.82C718.631 1347.99 717.203 1353.31 713.036 1355.72Z" fill="#595959" fill-rule="evenodd"/><path d="M0 8.71263C-1.41284e-15 3.90078 3.90078-2.82568e-15 8.71264-2.82568e-15L17.2056 0C22.0174-2.82568e-15 25.9182 3.90078 25.9182 8.71263L25.9182 80.0662C25.9182 84.878 22.0174 88.7788 17.2056 88.7788L8.71264 88.7788C3.90078 88.7788 0 84.878 0 80.0662Z" fill="#595959" fill-rule="evenodd" transform="matrix(0.866025 -0.5 -0.5 -0.866025 1401.52 1611.21)"/><path d="M0 8.71317C-1.41293e-15 3.90102 3.90102-2.82585e-15 8.71317-2.82585e-15L17.2066 0C22.0188-2.82585e-15 25.9198 3.90102 25.9198 8.71317L25.9198 80.0711C25.9198 84.8832 22.0188 88.7842 17.2066 88.7842L8.71317 88.7842C3.90102 88.7842 0 84.8832 0 80.0711Z" fill="#595959" fill-rule="evenodd" transform="matrix(0.5 -0.866025 -0.866025 -0.5 1617.74 1408.83)"/><path d="M1095 561.5C1095 539.685 1112.68 522 1134.5 522 1156.32 522 1174 539.685 1174 561.5 1174 583.315 1156.32 601 1134.5 601 1112.68 601 1095 583.315 1095 561.5Z" fill="#595959" fill-rule="evenodd"/><path d="M1095 1651.5C1095 1629.68 1112.68 1612 1134.5 1612 1156.32 1612 1174 1629.68 1174 1651.5 1174 1673.32 1156.32 1691 1134.5 1691 1112.68 1691 1095 1673.32 1095 1651.5Z" fill="#595959" fill-rule="evenodd"/><path d="M550 1106.5C550 1084.68 567.685 1067 589.5 1067 611.315 1067 629 1084.68 629 1106.5 629 1128.32 611.315 1146 589.5 1146 567.685 1146 550 1128.32 550 1106.5Z" fill="#595959" fill-rule="evenodd"/><path d="M1640 1106.5C1640 1084.68 1657.68 1067 1679.5 1067 1701.32 1067 1719 1084.68 1719 1106.5 1719 1128.32 1701.32 1146 1679.5 1146 1657.68 1146 1640 1128.32 1640 1106.5Z" fill="#595959" fill-rule="evenodd"/><path d="M0 8.71263C-1.41284e-15 3.90078 3.90078-2.82568e-15 8.71264-2.82568e-15L17.2056 0C22.0174-2.82568e-15 25.9182 3.90078 25.9182 8.71263L25.9182 80.0662C25.9182 84.878 22.0174 88.7788 17.2056 88.7788L8.71264 88.7788C3.90078 88.7788 0 84.878 0 80.0662Z" fill="#595959" fill-rule="evenodd" transform="matrix(-0.866025 0.5 0.5 0.866025 854.393 607.441)"/><path d="M0 8.71313C-1.41292e-15 3.901 3.901-2.82584e-15 8.71313-2.82584e-15L17.2065 0C22.0187-2.82584e-15 25.9197 3.901 25.9197 8.71313L25.9197 80.0707C25.9197 84.8829 22.0187 88.7839 17.2065 88.7839L8.71313 88.7839C3.901 88.7839 0 84.8829 0 80.0707Z" fill="#595959" fill-rule="evenodd" transform="matrix(-0.5 0.866025 0.866025 0.5 643.692 815.344)"/><path d="M1397.16 607.437C1399.56 603.27 1404.89 601.842 1409.06 604.248L1416.42 608.495C1420.58 610.9 1422.01 616.229 1419.6 620.396L1383.93 682.19C1381.52 686.357 1376.19 687.785 1372.03 685.379L1364.67 681.133C1360.5 678.727 1359.08 673.398 1361.48 669.231Z" fill="#595959" fill-rule="evenodd"/><path d="M1610.19 806.623C1614.36 804.217 1619.69 805.645 1622.1 809.812L1626.34 817.168C1628.75 821.335 1627.32 826.664 1623.15 829.07L1561.36 864.749C1557.19 867.155 1551.86 865.727 1549.45 861.56L1545.21 854.204C1542.8 850.037 1544.23 844.708 1548.4 842.302Z" fill="#595959" fill-rule="evenodd"/></g></svg>